# xmcd
#
# Track frame offsets: 
#        150
#        28338
#        58677
#        78057
#        100430
#        118977
#        138331
#        160237
#        176752
#
# Disc length: 2637 seconds
#
# Revision: 4
# Processed by: cddbd v1.5.2PL0 Copyright (c) Steve Scherf et al.
# Submitted via: ExactAudioCopyFreeDBPlugin 1.0
#
DISCID=7a0a4b09
DTITLE=Willie Dixon - The Perfect Blues Collection [disc 18] Willie Di
DTITLE=xon^ I Am the Blues
DYEAR=2011
DGENRE=Blues
TTITLE0=Back Door Man
TTITLE1=I Can't Quit You Baby
TTITLE2=The Seventh Son
TTITLE3=Spoonful
TTITLE4=I Ain't Superstitious
TTITLE5=You Shook Me
TTITLE6=I'm Your Hoochie Coochie Man
TTITLE7=The Little Red Rooste
TTITLE8=The Same Thing
EXTD=
EXTT0=
EXTT1=
EXTT2=
EXTT3=
EXTT4=
EXTT5=
EXTT6=
EXTT7=
EXTT8=
PLAYORDER=
